<svg width="78" height="78" viewBox="0 0 78 78" fill="none" xmlns="http://www.w3.org/2000/svg">
<path d="M3.4582 40.546L6.84784 43.9357L14.9373 52.0251L24.7635 61.8513L33.2109 70.2988C34.582 71.6699 35.9303 73.0638 37.3242 74.4121L37.3851 74.473C38.2611 75.349 39.7389 75.349 40.6148 74.473L44.0045 71.0834L52.0939 62.9939L61.9201 53.1677L70.3676 44.7203C71.7387 43.3492 73.1326 42.0009 74.4809 40.607L74.5418 40.546C75.3873 39.7005 75.4482 38.1466 74.5418 37.3164C73.6277 36.4785 72.2109 36.4099 71.3121 37.3164L67.9225 40.706L59.833 48.7955L50.0068 58.6216L41.5594 67.0691C40.1883 68.4402 38.7867 69.7808 37.4461 71.1824L37.3851 71.2433L40.6148 71.2433L37.2252 67.8537L29.1357 59.7642L19.3096 49.938L10.8621 41.4906C9.491 40.1195 8.14276 38.7255 6.74882 37.3773L6.68788 37.3164C5.84237 36.4708 4.28847 36.4099 3.4582 37.3164C2.6203 38.2228 2.55175 39.6396 3.4582 40.546Z" fill="#130E5B"/>
<path d="M41.2852 72.8738L41.2852 7.88392C41.2852 7.00795 41.2928 6.12435 41.2852 5.24838L41.2852 5.13412C41.2852 3.93822 40.234 2.79564 39 2.84896C37.7584 2.90228 36.7149 3.85443 36.7149 5.13412L36.7149 70.124C36.7149 70.9999 36.7073 71.8835 36.7149 72.7595L36.7149 72.8738C36.7149 74.0697 37.766 75.2122 39 75.1589C40.2416 75.098 41.2852 74.1535 41.2852 72.8738Z" fill="#130E5B"/>
</svg>
